<svg width="20" height="20" viewBox="0 0 20 20" fill="none" xmlns="http://www.w3.org/2000/svg">
<path d="M0 2.5C0 1.83696 0.263392 1.20107 0.732233 0.732233C1.20107 0.263392 1.83696 0 2.5 0H12.9737C13.6367 0.000141594 14.2725 0.263627 14.7413 0.7325L16.7675 2.75875C17.2364 3.22748 17.4999 3.86326 17.5 4.52625V8.25C17.1005 8.04559 16.6818 7.88104 16.25 7.75875V4.52625C16.2499 4.19476 16.1182 3.87687 15.8837 3.6425L13.8575 1.61625C13.6231 1.38181 13.3052 1.25007 12.9737 1.25H12.5V4.375C12.5 4.87228 12.3025 5.34919 11.9508 5.70083C11.5992 6.05246 11.1223 6.25 10.625 6.25H5.625C5.12772 6.25 4.65081 6.05246 4.29917 5.70083C3.94754 5.34919 3.75 4.87228 3.75 4.375V1.25H2.5C2.16848 1.25 1.85054 1.3817 1.61612 1.61612C1.3817 1.85054 1.25 2.16848 1.25 2.5V15C1.25 15.3315 1.3817 15.6495 1.61612 15.8839C1.85054 16.1183 2.16848 16.25 2.5 16.25V10.625C2.5 10.1277 2.69754 9.65081 3.04917 9.29917C3.40081 8.94754 3.87772 8.75 4.375 8.75H10.4212C9.9175 9.105 9.4625 9.525 9.07125 10H4.375C4.20924 10 4.05027 10.0658 3.93306 10.1831C3.81585 10.3003 3.75 10.4592 3.75 10.625V16.25H7.75875C7.8825 16.6863 8.04625 17.1038 8.25 17.5H2.5C1.83696 17.5 1.20107 17.2366 0.732233 16.7678C0.263392 16.2989 0 15.663 0 15V2.5ZM5 1.25V4.375C5 4.54076 5.06585 4.69973 5.18306 4.81694C5.30027 4.93415 5.45924 5 5.625 5H10.625C10.7908 5 10.9497 4.93415 11.0669 4.81694C11.1842 4.69973 11.25 4.54076 11.25 4.375V1.25H5ZM20 14.375C20 15.8668 19.4074 17.2976 18.3525 18.3525C17.2976 19.4074 15.8668 20 14.375 20C12.8832 20 11.4524 19.4074 10.3975 18.3525C9.34263 17.2976 8.75 15.8668 8.75 14.375C8.75 12.8832 9.34263 11.4524 10.3975 10.3975C11.4524 9.34263 12.8832 8.75 14.375 8.75C15.8668 8.75 17.2976 9.34263 18.3525 10.3975C19.4074 11.4524 20 12.8832 20 14.375ZM17.3162 14.8175L17.32 14.8137C17.4345 14.6978 17.4991 14.5417 17.5 14.3787V14.3713C17.499 14.2071 17.4334 14.05 17.3175 13.9338L14.8175 11.4338C14.7003 11.3164 14.5413 11.2504 14.3754 11.2503C14.2096 11.2502 14.0505 11.3159 13.9331 11.4331C13.8158 11.5503 13.7498 11.7093 13.7497 11.8752C13.7495 12.041 13.8153 12.2001 13.9325 12.3175L15.3663 13.75H11.875C11.7092 13.75 11.5503 13.8158 11.4331 13.9331C11.3158 14.0503 11.25 14.2092 11.25 14.375C11.25 14.5408 11.3158 14.6997 11.4331 14.8169C11.5503 14.9342 11.7092 15 11.875 15H15.3663L13.9325 16.4325C13.8151 16.5499 13.7492 16.709 13.7492 16.875C13.7492 17.041 13.8151 17.2001 13.9325 17.3175C14.0499 17.4349 14.209 17.5008 14.375 17.5008C14.541 17.5008 14.7001 17.4349 14.8175 17.3175L17.3175 14.8175H17.3162Z" fill="#7AC162"/>
</svg>
