<svg width="20" height="20" viewBox="0 0 20 20" fill="none" xmlns="http://www.w3.org/2000/svg">
<path d="M16.8402 0L20.0001 3.15989L17.5912 5.56983L14.4313 2.40994L16.8402 0ZM5.2666 14.7335H8.42649L16.1019 7.05814L12.942 3.89825L5.2666 11.5736V14.7335Z" fill="#E6BF6E"/>
<path d="M16.8527 17.8934H5.4329C5.40552 17.8934 5.37708 17.9039 5.34969 17.9039C5.31493 17.9039 5.28018 17.8944 5.24436 17.8934H2.10659V3.14724H9.31851L11.4251 1.04065H2.10659C0.944807 1.04065 0 1.9844 0 3.14724V17.8934C0 19.0562 0.944807 20 2.10659 20H16.8527C17.4114 20 17.9473 19.778 18.3423 19.383C18.7374 18.9879 18.9593 18.4521 18.9593 17.8934V8.76342L16.8527 10.87V17.8934Z" fill="#E6BF6E"/>
</svg>
