<svg width="9" height="15" viewBox="0 0 9 15" fill="none" xmlns="http://www.w3.org/2000/svg">
<path d="M0.392867 0.394637C0.26833 0.518919 0.169527 0.666543 0.102113 0.829057C0.0347 0.991571 0 1.16579 0 1.34173C0 1.51767 0.0347 1.69188 0.102113 1.8544C0.169527 2.01691 0.26833 2.16454 0.392867 2.28882L5.60522 7.50117L0.392867 12.7135C0.141683 12.9647 0.000568833 13.3054 0.000568833 13.6606C0.000568833 14.0158 0.141683 14.3565 0.392867 14.6077C0.644051 14.8589 0.984729 15 1.33996 15C1.69518 15 2.03586 14.8589 2.28705 14.6077L8.45321 8.44154C8.57774 8.31726 8.67655 8.16964 8.74396 8.00712C8.81137 7.84461 8.84607 7.67039 8.84607 7.49445C8.84607 7.31851 8.81137 7.1443 8.74396 6.98178C8.67655 6.81927 8.57774 6.67165 8.45321 6.54736L2.28705 0.381203C1.77656 -0.129285 0.916789 -0.129285 0.392867 0.394637Z" fill="#AAB2BB"/>
</svg>
