<svg width="25" height="20" viewBox="0 0 25 20" fill="none" xmlns="http://www.w3.org/2000/svg">
<path d="M7.93152 9.63199C8.25569 9.63199 8.56659 9.76077 8.79582 9.98999C9.02504 10.2192 9.15382 10.5301 9.15382 10.8543C9.15382 11.1785 9.02504 11.4894 8.79582 11.7186C8.56659 11.9478 8.25569 12.0766 7.93152 12.0766C7.60719 12.0766 7.29613 11.9477 7.06679 11.7184C6.83745 11.4891 6.70861 11.178 6.70861 10.8537C6.70861 10.5293 6.83745 10.2183 7.06679 9.98895C7.29613 9.75961 7.60719 9.63077 7.93152 9.63077V9.63199ZM12.1986 0.913661V9.02694H21.2768L19.1762 6.9239C19.0209 6.76893 18.9265 6.56332 18.9102 6.34455C18.8938 6.12579 18.9566 5.90843 19.0871 5.7321L19.1762 5.62963C19.3312 5.47487 19.5367 5.38089 19.7552 5.36477C19.9737 5.34866 20.1907 5.41147 20.3668 5.5418L20.4692 5.62963L24.1251 9.28677C24.2801 9.44168 24.3743 9.64705 24.3906 9.86553C24.407 10.084 24.3444 10.3011 24.2142 10.4774L24.1251 10.5798L20.4704 14.2431C20.3072 14.4056 20.0886 14.5007 19.8583 14.5091C19.6281 14.5175 19.4031 14.4388 19.2284 14.2885C19.0537 14.1383 18.9421 13.9277 18.9159 13.6988C18.8897 13.4699 18.9509 13.2395 19.0871 13.0537L19.175 12.9512L21.2646 10.8567H12.1998L12.1986 19.0859C12.1985 19.2194 12.1691 19.3513 12.1126 19.4722C12.0562 19.5932 11.9739 19.7003 11.8716 19.7861C11.7693 19.8719 11.6495 19.9343 11.5205 19.9688C11.3916 20.0034 11.2566 20.0093 11.1251 19.9862L0.756312 18.1551C0.544352 18.1178 0.352327 18.007 0.214 17.8421C0.0756731 17.6772 -0.000101072 17.4689 1.01184e-07 17.2537V2.6178C3.22684e-06 2.40096 0.0770266 2.19117 0.217335 2.02583C0.357644 1.8605 0.552116 1.75038 0.766071 1.71511L11.1349 0.0121854C11.2658 -0.00940624 11.3999 -0.00224139 11.5279 0.0331827C11.6558 0.0686068 11.7745 0.131442 11.8757 0.217327C11.9769 0.303212 12.0582 0.41009 12.1139 0.530545C12.1697 0.651 12.1986 0.782145 12.1986 0.914881V0.913661ZM10.3688 1.9908L1.82979 3.39363V16.4852L10.3688 17.9929V1.99202V1.9908ZM13.4184 18.171H14.3516L14.4761 18.1625C14.6953 18.1324 14.8962 18.0238 15.0415 17.857C15.1869 17.6901 15.2668 17.4762 15.2665 17.2549L15.258 12.0705H13.4184V18.1698V18.171ZM13.4209 7.8022L13.4184 6.24688V1.70291H14.3272C14.5481 1.70288 14.7616 1.78277 14.9282 1.92784C15.0948 2.07291 15.2033 2.27335 15.2336 2.49216L15.2421 2.61536L15.2507 7.8022H13.4209Z" fill="#AAB2BB"/>
</svg>
