<svg width="565" height="384" viewBox="0 0 565 384" fill="none" xmlns="http://www.w3.org/2000/svg">
<g filter="url(#filter0_d_1547_458)">
<rect x="11" y="11" width="465" height="266" rx="10" fill="white"/>
</g>
<path d="M42 53V229H460" stroke="#0090E8"/>
<path d="M43 192H459" stroke="#AAB2BB" stroke-opacity="0.2"/>
<path d="M43 156H459" stroke="#AAB2BB" stroke-opacity="0.2"/>
<path d="M43 120H459" stroke="#AAB2BB" stroke-opacity="0.2"/>
<path d="M43 84H459" stroke="#AAB2BB" stroke-opacity="0.2"/>
<path d="M24.38 188.6V187.77H26.26V195H25.34V188.6H24.38ZM27.8231 191.31C27.8231 190.163 28.0098 189.27 28.3831 188.63C28.7565 187.983 29.4098 187.66 30.3431 187.66C31.2698 187.66 31.9198 187.983 32.2931 188.63C32.6665 189.27 32.8531 190.163 32.8531 191.31C32.8531 192.477 32.6665 193.383 32.2931 194.03C31.9198 194.677 31.2698 195 30.3431 195C29.4098 195 28.7565 194.677 28.3831 194.03C28.0098 193.383 27.8231 192.477 27.8231 191.31ZM31.9531 191.31C31.9531 190.73 31.9131 190.24 31.8331 189.84C31.7598 189.433 31.6031 189.107 31.3631 188.86C31.1298 188.613 30.7898 188.49 30.3431 188.49C29.8898 188.49 29.5431 188.613 29.3031 188.86C29.0698 189.107 28.9131 189.433 28.8331 189.84C28.7598 190.24 28.7231 190.73 28.7231 191.31C28.7231 191.91 28.7598 192.413 28.8331 192.82C28.9131 193.227 29.0698 193.553 29.3031 193.8C29.5431 194.047 29.8898 194.17 30.3431 194.17C30.7898 194.17 31.1298 194.047 31.3631 193.8C31.6031 193.553 31.7598 193.227 31.8331 192.82C31.9131 192.413 31.9531 191.91 31.9531 191.31Z" fill="#0090E8"/>
<path d="M76.51 244.27C77.3567 243.59 78.02 243.033 78.5 242.6C78.98 242.16 79.3833 241.703 79.71 241.23C80.0433 240.75 80.21 240.28 80.21 239.82C80.21 239.387 80.1033 239.047 79.89 238.8C79.6833 238.547 79.3467 238.42 78.88 238.42C78.4267 238.42 78.0733 238.563 77.82 238.85C77.5733 239.13 77.44 239.507 77.42 239.98H76.54C76.5667 239.233 76.7933 238.657 77.22 238.25C77.6467 237.843 78.1967 237.64 78.87 237.64C79.5567 237.64 80.1 237.83 80.5 238.21C80.9067 238.59 81.11 239.113 81.11 239.78C81.11 240.333 80.9433 240.873 80.61 241.4C80.2833 241.92 79.91 242.38 79.49 242.78C79.07 243.173 78.5333 243.633 77.88 244.16H81.32V244.92H76.51V244.27ZM82.372 241.31C82.372 240.163 82.5586 239.27 82.932 238.63C83.3053 237.983 83.9586 237.66 84.892 237.66C85.8186 237.66 86.4686 237.983 86.842 238.63C87.2153 239.27 87.402 240.163 87.402 241.31C87.402 242.477 87.2153 243.383 86.842 244.03C86.4686 244.677 85.8186 245 84.892 245C83.9586 245 83.3053 244.677 82.932 244.03C82.5586 243.383 82.372 242.477 82.372 241.31ZM86.502 241.31C86.502 240.73 86.462 240.24 86.382 239.84C86.3086 239.433 86.152 239.107 85.912 238.86C85.6786 238.613 85.3386 238.49 84.892 238.49C84.4386 238.49 84.092 238.613 83.852 238.86C83.6186 239.107 83.462 239.433 83.382 239.84C83.3086 240.24 83.272 240.73 83.272 241.31C83.272 241.91 83.3086 242.413 83.382 242.82C83.462 243.227 83.6186 243.553 83.852 243.8C84.092 244.047 84.4386 244.17 84.892 244.17C85.3386 244.17 85.6786 244.047 85.912 243.8C86.152 243.553 86.3086 243.227 86.382 242.82C86.462 242.413 86.502 241.91 86.502 241.31ZM88.4113 238.6V237.77H90.2913V245H89.3713V238.6H88.4113ZM93.1744 241.24C92.801 241.093 92.5144 240.88 92.3144 240.6C92.1144 240.32 92.0144 239.98 92.0144 239.58C92.0144 239.22 92.1044 238.897 92.2844 238.61C92.4644 238.317 92.731 238.087 93.0844 237.92C93.4444 237.747 93.8777 237.66 94.3844 237.66C94.891 237.66 95.321 237.747 95.6744 237.92C96.0344 238.087 96.3044 238.317 96.4844 238.61C96.671 238.897 96.7644 239.22 96.7644 239.58C96.7644 239.967 96.661 240.307 96.4544 240.6C96.2477 240.887 95.9644 241.1 95.6044 241.24C96.0177 241.367 96.3444 241.59 96.5844 241.91C96.831 242.223 96.9544 242.603 96.9544 243.05C96.9544 243.483 96.8477 243.863 96.6344 244.19C96.421 244.51 96.1177 244.76 95.7244 244.94C95.3377 245.113 94.891 245.2 94.3844 245.2C93.8777 245.2 93.431 245.113 93.0444 244.94C92.6644 244.76 92.3677 244.51 92.1544 244.19C91.941 243.863 91.8344 243.483 91.8344 243.05C91.8344 242.603 91.9544 242.22 92.1944 241.9C92.4344 241.58 92.761 241.36 93.1744 241.24ZM95.8844 239.69C95.8844 239.283 95.751 238.97 95.4844 238.75C95.2177 238.53 94.851 238.42 94.3844 238.42C93.9244 238.42 93.561 238.53 93.2944 238.75C93.0277 238.97 92.8944 239.287 92.8944 239.7C92.8944 240.073 93.031 240.373 93.3044 240.6C93.5844 240.827 93.9444 240.94 94.3844 240.94C94.831 240.94 95.191 240.827 95.4644 240.6C95.7444 240.367 95.8844 240.063 95.8844 239.69ZM94.3844 241.64C93.891 241.64 93.4877 241.757 93.1744 241.99C92.861 242.217 92.7044 242.56 92.7044 243.02C92.7044 243.447 92.8544 243.79 93.1544 244.05C93.461 244.31 93.871 244.44 94.3844 244.44C94.8977 244.44 95.3044 244.31 95.6044 244.05C95.9044 243.79 96.0544 243.447 96.0544 243.02C96.0544 242.573 95.901 242.233 95.5944 242C95.2877 241.76 94.8844 241.64 94.3844 241.64Z" fill="#0090E8"/>
<path d="M227.51 244.27C228.357 243.59 229.02 243.033 229.5 242.6C229.98 242.16 230.383 241.703 230.71 241.23C231.043 240.75 231.21 240.28 231.21 239.82C231.21 239.387 231.103 239.047 230.89 238.8C230.683 238.547 230.347 238.42 229.88 238.42C229.427 238.42 229.073 238.563 228.82 238.85C228.573 239.13 228.44 239.507 228.42 239.98H227.54C227.567 239.233 227.793 238.657 228.22 238.25C228.647 237.843 229.197 237.64 229.87 237.64C230.557 237.64 231.1 237.83 231.5 238.21C231.907 238.59 232.11 239.113 232.11 239.78C232.11 240.333 231.943 240.873 231.61 241.4C231.283 241.92 230.91 242.38 230.49 242.78C230.07 243.173 229.533 243.633 228.88 244.16H232.32V244.92H227.51V244.27ZM233.372 241.31C233.372 240.163 233.559 239.27 233.932 238.63C234.305 237.983 234.959 237.66 235.892 237.66C236.819 237.66 237.469 237.983 237.842 238.63C238.215 239.27 238.402 240.163 238.402 241.31C238.402 242.477 238.215 243.383 237.842 244.03C237.469 244.677 236.819 245 235.892 245C234.959 245 234.305 244.677 233.932 244.03C233.559 243.383 233.372 242.477 233.372 241.31ZM237.502 241.31C237.502 240.73 237.462 240.24 237.382 239.84C237.309 239.433 237.152 239.107 236.912 238.86C236.679 238.613 236.339 238.49 235.892 238.49C235.439 238.49 235.092 238.613 234.852 238.86C234.619 239.107 234.462 239.433 234.382 239.84C234.309 240.24 234.272 240.73 234.272 241.31C234.272 241.91 234.309 242.413 234.382 242.82C234.462 243.227 234.619 243.553 234.852 243.8C235.092 244.047 235.439 244.17 235.892 244.17C236.339 244.17 236.679 244.047 236.912 243.8C237.152 243.553 237.309 243.227 237.382 242.82C237.462 242.413 237.502 241.91 237.502 241.31ZM239.411 238.6V237.77H241.291V245H240.371V238.6H239.411ZM244.024 243.06C244.091 243.44 244.244 243.733 244.484 243.94C244.731 244.147 245.061 244.25 245.474 244.25C246.028 244.25 246.434 244.033 246.694 243.6C246.961 243.167 247.088 242.437 247.074 241.41C246.934 241.71 246.701 241.947 246.374 242.12C246.048 242.287 245.684 242.37 245.284 242.37C244.838 242.37 244.438 242.28 244.084 242.1C243.738 241.913 243.464 241.643 243.264 241.29C243.064 240.937 242.964 240.51 242.964 240.01C242.964 239.297 243.171 238.723 243.584 238.29C243.998 237.85 244.584 237.63 245.344 237.63C246.278 237.63 246.931 237.933 247.304 238.54C247.684 239.147 247.874 240.05 247.874 241.25C247.874 242.09 247.798 242.783 247.644 243.33C247.498 243.877 247.244 244.293 246.884 244.58C246.531 244.867 246.044 245.01 245.424 245.01C244.744 245.01 244.214 244.827 243.834 244.46C243.454 244.093 243.238 243.627 243.184 243.06H244.024ZM245.434 241.6C245.881 241.6 246.248 241.463 246.534 241.19C246.821 240.91 246.964 240.533 246.964 240.06C246.964 239.56 246.824 239.157 246.544 238.85C246.264 238.543 245.871 238.39 245.364 238.39C244.898 238.39 244.524 238.537 244.244 238.83C243.971 239.123 243.834 239.51 243.834 239.99C243.834 240.477 243.971 240.867 244.244 241.16C244.518 241.453 244.914 241.6 245.434 241.6Z" fill="#0090E8"/>
<path d="M378.51 244.27C379.357 243.59 380.02 243.033 380.5 242.6C380.98 242.16 381.383 241.703 381.71 241.23C382.043 240.75 382.21 240.28 382.21 239.82C382.21 239.387 382.103 239.047 381.89 238.8C381.683 238.547 381.347 238.42 380.88 238.42C380.427 238.42 380.073 238.563 379.82 238.85C379.573 239.13 379.44 239.507 379.42 239.98H378.54C378.567 239.233 378.793 238.657 379.22 238.25C379.647 237.843 380.197 237.64 380.87 237.64C381.557 237.64 382.1 237.83 382.5 238.21C382.907 238.59 383.11 239.113 383.11 239.78C383.11 240.333 382.943 240.873 382.61 241.4C382.283 241.92 381.91 242.38 381.49 242.78C381.07 243.173 380.533 243.633 379.88 244.16H383.32V244.92H378.51V244.27ZM384.372 241.31C384.372 240.163 384.559 239.27 384.932 238.63C385.305 237.983 385.959 237.66 386.892 237.66C387.819 237.66 388.469 237.983 388.842 238.63C389.215 239.27 389.402 240.163 389.402 241.31C389.402 242.477 389.215 243.383 388.842 244.03C388.469 244.677 387.819 245 386.892 245C385.959 245 385.305 244.677 384.932 244.03C384.559 243.383 384.372 242.477 384.372 241.31ZM388.502 241.31C388.502 240.73 388.462 240.24 388.382 239.84C388.309 239.433 388.152 239.107 387.912 238.86C387.679 238.613 387.339 238.49 386.892 238.49C386.439 238.49 386.092 238.613 385.852 238.86C385.619 239.107 385.462 239.433 385.382 239.84C385.309 240.24 385.272 240.73 385.272 241.31C385.272 241.91 385.309 242.413 385.382 242.82C385.462 243.227 385.619 243.553 385.852 243.8C386.092 244.047 386.439 244.17 386.892 244.17C387.339 244.17 387.679 244.047 387.912 243.8C388.152 243.553 388.309 243.227 388.382 242.82C388.462 242.413 388.502 241.91 388.502 241.31ZM390.541 244.27C391.388 243.59 392.051 243.033 392.531 242.6C393.011 242.16 393.415 241.703 393.741 241.23C394.075 240.75 394.241 240.28 394.241 239.82C394.241 239.387 394.135 239.047 393.921 238.8C393.715 238.547 393.378 238.42 392.911 238.42C392.458 238.42 392.105 238.563 391.851 238.85C391.605 239.13 391.471 239.507 391.451 239.98H390.571C390.598 239.233 390.825 238.657 391.251 238.25C391.678 237.843 392.228 237.64 392.901 237.64C393.588 237.64 394.131 237.83 394.531 238.21C394.938 238.59 395.141 239.113 395.141 239.78C395.141 240.333 394.975 240.873 394.641 241.4C394.315 241.92 393.941 242.38 393.521 242.78C393.101 243.173 392.565 243.633 391.911 244.16H395.351V244.92H390.541V244.27ZM396.403 241.31C396.403 240.163 396.59 239.27 396.963 238.63C397.337 237.983 397.99 237.66 398.923 237.66C399.85 237.66 400.5 237.983 400.873 238.63C401.247 239.27 401.433 240.163 401.433 241.31C401.433 242.477 401.247 243.383 400.873 244.03C400.5 244.677 399.85 245 398.923 245C397.99 245 397.337 244.677 396.963 244.03C396.59 243.383 396.403 242.477 396.403 241.31ZM400.533 241.31C400.533 240.73 400.493 240.24 400.413 239.84C400.34 239.433 400.183 239.107 399.943 238.86C399.71 238.613 399.37 238.49 398.923 238.49C398.47 238.49 398.123 238.613 397.883 238.86C397.65 239.107 397.493 239.433 397.413 239.84C397.34 240.24 397.303 240.73 397.303 241.31C397.303 241.91 397.34 242.413 397.413 242.82C397.493 243.227 397.65 243.553 397.883 243.8C398.123 244.047 398.47 244.17 398.923 244.17C399.37 244.17 399.71 244.047 399.943 243.8C400.183 243.553 400.34 243.227 400.413 242.82C400.493 242.413 400.533 241.91 400.533 241.31Z" fill="#0090E8"/>
<path d="M24.51 158.27C25.3567 157.59 26.02 157.033 26.5 156.6C26.98 156.16 27.3833 155.703 27.71 155.23C28.0433 154.75 28.21 154.28 28.21 153.82C28.21 153.387 28.1033 153.047 27.89 152.8C27.6833 152.547 27.3467 152.42 26.88 152.42C26.4267 152.42 26.0733 152.563 25.82 152.85C25.5733 153.13 25.44 153.507 25.42 153.98H24.54C24.5667 153.233 24.7933 152.657 25.22 152.25C25.6467 151.843 26.1967 151.64 26.87 151.64C27.5567 151.64 28.1 151.83 28.5 152.21C28.9067 152.59 29.11 153.113 29.11 153.78C29.11 154.333 28.9433 154.873 28.61 155.4C28.2833 155.92 27.91 156.38 27.49 156.78C27.07 157.173 26.5333 157.633 25.88 158.16H29.32V158.92H24.51V158.27ZM30.372 155.31C30.372 154.163 30.5586 153.27 30.932 152.63C31.3053 151.983 31.9586 151.66 32.892 151.66C33.8186 151.66 34.4686 151.983 34.842 152.63C35.2153 153.27 35.402 154.163 35.402 155.31C35.402 156.477 35.2153 157.383 34.842 158.03C34.4686 158.677 33.8186 159 32.892 159C31.9586 159 31.3053 158.677 30.932 158.03C30.5586 157.383 30.372 156.477 30.372 155.31ZM34.502 155.31C34.502 154.73 34.462 154.24 34.382 153.84C34.3086 153.433 34.152 153.107 33.912 152.86C33.6786 152.613 33.3386 152.49 32.892 152.49C32.4386 152.49 32.092 152.613 31.852 152.86C31.6186 153.107 31.462 153.433 31.382 153.84C31.3086 154.24 31.272 154.73 31.272 155.31C31.272 155.91 31.3086 156.413 31.382 156.82C31.462 157.227 31.6186 157.553 31.852 157.8C32.092 158.047 32.4386 158.17 32.892 158.17C33.3386 158.17 33.6786 158.047 33.912 157.8C34.152 157.553 34.3086 157.227 34.382 156.82C34.462 156.413 34.502 155.91 34.502 155.31Z" fill="#0090E8"/>
<path d="M24.6 117.59C24.6467 116.977 24.8833 116.497 25.31 116.15C25.7367 115.803 26.29 115.63 26.97 115.63C27.4233 115.63 27.8133 115.713 28.14 115.88C28.4733 116.04 28.7233 116.26 28.89 116.54C29.0633 116.82 29.15 117.137 29.15 117.49C29.15 117.903 29.03 118.26 28.79 118.56C28.5567 118.86 28.25 119.053 27.87 119.14V119.19C28.3033 119.297 28.6467 119.507 28.9 119.82C29.1533 120.133 29.28 120.543 29.28 121.05C29.28 121.43 29.1933 121.773 29.02 122.08C28.8467 122.38 28.5867 122.617 28.24 122.79C27.8933 122.963 27.4767 123.05 26.99 123.05C26.2833 123.05 25.7033 122.867 25.25 122.5C24.7967 122.127 24.5433 121.6 24.49 120.92H25.37C25.4167 121.32 25.58 121.647 25.86 121.9C26.14 122.153 26.5133 122.28 26.98 122.28C27.4467 122.28 27.8 122.16 28.04 121.92C28.2867 121.673 28.41 121.357 28.41 120.97C28.41 120.47 28.2433 120.11 27.91 119.89C27.5767 119.67 27.0733 119.56 26.4 119.56H26.17V118.8H26.41C27.0233 118.793 27.4867 118.693 27.8 118.5C28.1133 118.3 28.27 117.993 28.27 117.58C28.27 117.227 28.1533 116.943 27.92 116.73C27.6933 116.517 27.3667 116.41 26.94 116.41C26.5267 116.41 26.1933 116.517 25.94 116.73C25.6867 116.943 25.5367 117.23 25.49 117.59H24.6ZM30.5087 119.31C30.5087 118.163 30.6953 117.27 31.0687 116.63C31.442 115.983 32.0953 115.66 33.0287 115.66C33.9553 115.66 34.6053 115.983 34.9787 116.63C35.352 117.27 35.5387 118.163 35.5387 119.31C35.5387 120.477 35.352 121.383 34.9787 122.03C34.6053 122.677 33.9553 123 33.0287 123C32.0953 123 31.442 122.677 31.0687 122.03C30.6953 121.383 30.5087 120.477 30.5087 119.31ZM34.6387 119.31C34.6387 118.73 34.5987 118.24 34.5187 117.84C34.4453 117.433 34.2887 117.107 34.0487 116.86C33.8153 116.613 33.4753 116.49 33.0287 116.49C32.5753 116.49 32.2287 116.613 31.9887 116.86C31.7553 117.107 31.5987 117.433 31.5187 117.84C31.4453 118.24 31.4087 118.73 31.4087 119.31C31.4087 119.91 31.4453 120.413 31.5187 120.82C31.5987 121.227 31.7553 121.553 31.9887 121.8C32.2287 122.047 32.5753 122.17 33.0287 122.17C33.4753 122.17 33.8153 122.047 34.0487 121.8C34.2887 121.553 34.4453 121.227 34.5187 120.82C34.5987 120.413 34.6387 119.91 34.6387 119.31Z" fill="#0090E8"/>
<path d="M24.4 85.39V84.7L27.91 79.84H29V84.6H30V85.39H29V87H28.1V85.39H24.4ZM28.14 80.79L25.45 84.6H28.14V80.79ZM30.9091 83.31C30.9091 82.1633 31.0957 81.27 31.4691 80.63C31.8424 79.9833 32.4957 79.66 33.4291 79.66C34.3557 79.66 35.0057 79.9833 35.3791 80.63C35.7524 81.27 35.9391 82.1633 35.9391 83.31C35.9391 84.4767 35.7524 85.3833 35.3791 86.03C35.0057 86.6767 34.3557 87 33.4291 87C32.4957 87 31.8424 86.6767 31.4691 86.03C31.0957 85.3833 30.9091 84.4767 30.9091 83.31ZM35.0391 83.31C35.0391 82.73 34.9991 82.24 34.9191 81.84C34.8457 81.4333 34.6891 81.1067 34.4491 80.86C34.2157 80.6133 33.8757 80.49 33.4291 80.49C32.9757 80.49 32.6291 80.6133 32.3891 80.86C32.1557 81.1067 31.9991 81.4333 31.9191 81.84C31.8457 82.24 31.8091 82.73 31.8091 83.31C31.8091 83.91 31.8457 84.4133 31.9191 84.82C31.9991 85.2267 32.1557 85.5533 32.3891 85.8C32.6291 86.0467 32.9757 86.17 33.4291 86.17C33.8757 86.17 34.2157 86.0467 34.4491 85.8C34.6891 85.5533 34.8457 85.2267 34.9191 84.82C34.9991 84.4133 35.0391 83.91 35.0391 83.31Z" fill="#0090E8"/>
<ellipse cx="68.1614" cy="192" rx="2.32545" ry="4" fill="#FFC107"/>
<ellipse cx="243.733" cy="207" rx="2.32545" ry="4" fill="#FFC107"/>
<ellipse cx="331.519" cy="192" rx="2.32545" ry="4" fill="#FFC107"/>
<ellipse cx="419.886" cy="174" rx="2.32545" ry="4" fill="#FFC107"/>
<path d="M42.2907 228.5L68.1614 192L155.656 156L243.733 207L331.519 192L420.177 174.5L459.419 192" stroke="#FFC107"/>
<ellipse cx="155.947" cy="156" rx="2.32545" ry="4" fill="#FFC107"/>
<ellipse cx="68.1614" cy="138" rx="2.32545" ry="4" fill="#4CAF50"/>
<ellipse cx="155.947" cy="192" rx="2.32545" ry="4" fill="#4CAF50"/>
<ellipse cx="243.733" cy="119" rx="2.32545" ry="4" fill="#4CAF50"/>
<ellipse cx="331.519" cy="84" rx="2.32545" ry="4" fill="#4CAF50"/>
<ellipse cx="419.886" cy="192" rx="2.32545" ry="4" fill="#4CAF50"/>
<path d="M42.2907 228L68.452 138L155.947 191.5L243.733 119L330.937 85L419.886 192.5L459.128 156" stroke="#4CAF50"/>
<path d="M174.964 51.974C175.319 52.03 175.641 52.1747 175.93 52.408C176.229 52.6413 176.462 52.9307 176.63 53.276C176.807 53.6213 176.896 53.99 176.896 54.382C176.896 54.8767 176.77 55.3247 176.518 55.726C176.266 56.118 175.897 56.4307 175.412 56.664C174.936 56.888 174.371 57 173.718 57H170.078V47.242H173.578C174.241 47.242 174.805 47.354 175.272 47.578C175.739 47.7927 176.089 48.0867 176.322 48.46C176.555 48.8333 176.672 49.2533 176.672 49.72C176.672 50.2987 176.513 50.7793 176.196 51.162C175.888 51.5353 175.477 51.806 174.964 51.974ZM171.352 51.456H173.494C174.091 51.456 174.553 51.316 174.88 51.036C175.207 50.756 175.37 50.3687 175.37 49.874C175.37 49.3793 175.207 48.992 174.88 48.712C174.553 48.432 174.082 48.292 173.466 48.292H171.352V51.456ZM173.606 55.95C174.241 55.95 174.735 55.8007 175.09 55.502C175.445 55.2033 175.622 54.788 175.622 54.256C175.622 53.7147 175.435 53.29 175.062 52.982C174.689 52.6647 174.189 52.506 173.564 52.506H171.352V55.95H173.606ZM185.664 52.87C185.664 53.1127 185.65 53.3693 185.622 53.64H179.49C179.537 54.396 179.793 54.9887 180.26 55.418C180.736 55.838 181.31 56.048 181.982 56.048C182.533 56.048 182.99 55.922 183.354 55.67C183.727 55.4087 183.989 55.0633 184.138 54.634H185.51C185.305 55.3713 184.894 55.9733 184.278 56.44C183.662 56.8973 182.897 57.126 181.982 57.126C181.254 57.126 180.601 56.9627 180.022 56.636C179.453 56.3093 179.005 55.8473 178.678 55.25C178.351 54.6433 178.188 53.9433 178.188 53.15C178.188 52.3567 178.347 51.6613 178.664 51.064C178.981 50.4667 179.425 50.0093 179.994 49.692C180.573 49.3653 181.235 49.202 181.982 49.202C182.71 49.202 183.354 49.3607 183.914 49.678C184.474 49.9953 184.903 50.434 185.202 50.994C185.51 51.5447 185.664 52.17 185.664 52.87ZM184.348 52.604C184.348 52.1187 184.241 51.7033 184.026 51.358C183.811 51.0033 183.517 50.7373 183.144 50.56C182.78 50.3733 182.374 50.28 181.926 50.28C181.282 50.28 180.731 50.4853 180.274 50.896C179.826 51.3067 179.569 51.876 179.504 52.604H184.348ZM188.62 50.574C188.844 50.1353 189.161 49.7947 189.572 49.552C189.992 49.3093 190.5 49.188 191.098 49.188V50.504H190.762C189.334 50.504 188.62 51.2787 188.62 52.828V57H187.346V49.328H188.62V50.574ZM195.732 49.202C196.395 49.202 196.974 49.3467 197.468 49.636C197.972 49.9253 198.346 50.2893 198.588 50.728V49.328H199.876V57.168C199.876 57.868 199.727 58.4887 199.428 59.03C199.13 59.5807 198.7 60.01 198.14 60.318C197.59 60.626 196.946 60.78 196.208 60.78C195.2 60.78 194.36 60.542 193.688 60.066C193.016 59.59 192.62 58.9413 192.498 58.12H193.758C193.898 58.5867 194.188 58.96 194.626 59.24C195.065 59.5293 195.592 59.674 196.208 59.674C196.908 59.674 197.478 59.4547 197.916 59.016C198.364 58.5773 198.588 57.9613 198.588 57.168V55.558C198.336 56.006 197.963 56.3793 197.468 56.678C196.974 56.9767 196.395 57.126 195.732 57.126C195.051 57.126 194.43 56.958 193.87 56.622C193.32 56.286 192.886 55.8147 192.568 55.208C192.251 54.6013 192.092 53.9107 192.092 53.136C192.092 52.352 192.251 51.666 192.568 51.078C192.886 50.4807 193.32 50.0187 193.87 49.692C194.43 49.3653 195.051 49.202 195.732 49.202ZM198.588 53.15C198.588 52.5713 198.472 52.0673 198.238 51.638C198.005 51.2087 197.688 50.882 197.286 50.658C196.894 50.4247 196.46 50.308 195.984 50.308C195.508 50.308 195.074 50.42 194.682 50.644C194.29 50.868 193.978 51.1947 193.744 51.624C193.511 52.0533 193.394 52.5573 193.394 53.136C193.394 53.724 193.511 54.2373 193.744 54.676C193.978 55.1053 194.29 55.4367 194.682 55.67C195.074 55.894 195.508 56.006 195.984 56.006C196.46 56.006 196.894 55.894 197.286 55.67C197.688 55.4367 198.005 55.1053 198.238 54.676C198.472 54.2373 198.588 53.7287 198.588 53.15ZM201.553 53.136C201.553 52.352 201.712 51.666 202.029 51.078C202.347 50.4807 202.781 50.0187 203.331 49.692C203.891 49.3653 204.512 49.202 205.193 49.202C205.865 49.202 206.449 49.3467 206.943 49.636C207.438 49.9253 207.807 50.2893 208.049 50.728V49.328H209.337V57H208.049V55.572C207.797 56.02 207.419 56.3933 206.915 56.692C206.421 56.9813 205.842 57.126 205.179 57.126C204.498 57.126 203.882 56.958 203.331 56.622C202.781 56.286 202.347 55.8147 202.029 55.208C201.712 54.6013 201.553 53.9107 201.553 53.136ZM208.049 53.15C208.049 52.5713 207.933 52.0673 207.699 51.638C207.466 51.2087 207.149 50.882 206.747 50.658C206.355 50.4247 205.921 50.308 205.445 50.308C204.969 50.308 204.535 50.42 204.143 50.644C203.751 50.868 203.439 51.1947 203.205 51.624C202.972 52.0533 202.855 52.5573 202.855 53.136C202.855 53.724 202.972 54.2373 203.205 54.676C203.439 55.1053 203.751 55.4367 204.143 55.67C204.535 55.894 204.969 56.006 205.445 56.006C205.921 56.006 206.355 55.894 206.747 55.67C207.149 55.4367 207.466 55.1053 207.699 54.676C207.933 54.2373 208.049 53.7287 208.049 53.15ZM212.764 50.756C213.025 50.2987 213.408 49.9253 213.912 49.636C214.416 49.3467 214.99 49.202 215.634 49.202C216.325 49.202 216.945 49.3653 217.496 49.692C218.047 50.0187 218.481 50.4807 218.798 51.078C219.115 51.666 219.274 52.352 219.274 53.136C219.274 53.9107 219.115 54.6013 218.798 55.208C218.481 55.8147 218.042 56.286 217.482 56.622C216.931 56.958 216.315 57.126 215.634 57.126C214.971 57.126 214.388 56.9813 213.884 56.692C213.389 56.4027 213.016 56.034 212.764 55.586V57H211.49V46.64H212.764V50.756ZM217.972 53.136C217.972 52.5573 217.855 52.0533 217.622 51.624C217.389 51.1947 217.071 50.868 216.67 50.644C216.278 50.42 215.844 50.308 215.368 50.308C214.901 50.308 214.467 50.4247 214.066 50.658C213.674 50.882 213.357 51.2133 213.114 51.652C212.881 52.0813 212.764 52.5807 212.764 53.15C212.764 53.7287 212.881 54.2373 213.114 54.676C213.357 55.1053 213.674 55.4367 214.066 55.67C214.467 55.894 214.901 56.006 215.368 56.006C215.844 56.006 216.278 55.894 216.67 55.67C217.071 55.4367 217.389 55.1053 217.622 54.676C217.855 54.2373 217.972 53.724 217.972 53.136ZM227.755 49.328V57H226.481V55.866C226.238 56.258 225.898 56.566 225.459 56.79C225.03 57.0047 224.554 57.112 224.031 57.112C223.434 57.112 222.897 56.9907 222.421 56.748C221.945 56.496 221.567 56.1227 221.287 55.628C221.016 55.1333 220.881 54.5313 220.881 53.822V49.328H222.141V53.654C222.141 54.41 222.332 54.9933 222.715 55.404C223.098 55.8053 223.62 56.006 224.283 56.006C224.964 56.006 225.501 55.796 225.893 55.376C226.285 54.956 226.481 54.3447 226.481 53.542V49.328H227.755ZM233.644 49.188C234.577 49.188 235.333 49.4727 235.912 50.042C236.491 50.602 236.78 51.414 236.78 52.478V57H235.52V52.66C235.52 51.8947 235.329 51.3113 234.946 50.91C234.563 50.4993 234.041 50.294 233.378 50.294C232.706 50.294 232.169 50.504 231.768 50.924C231.376 51.344 231.18 51.9553 231.18 52.758V57H229.906V49.328H231.18V50.42C231.432 50.028 231.773 49.7247 232.202 49.51C232.641 49.2953 233.121 49.188 233.644 49.188ZM242.025 49.202C242.688 49.202 243.267 49.3467 243.761 49.636C244.265 49.9253 244.639 50.2893 244.881 50.728V49.328H246.169V57.168C246.169 57.868 246.02 58.4887 245.721 59.03C245.423 59.5807 244.993 60.01 244.433 60.318C243.883 60.626 243.239 60.78 242.501 60.78C241.493 60.78 240.653 60.542 239.981 60.066C239.309 59.59 238.913 58.9413 238.791 58.12H240.051C240.191 58.5867 240.481 58.96 240.919 59.24C241.358 59.5293 241.885 59.674 242.501 59.674C243.201 59.674 243.771 59.4547 244.209 59.016C244.657 58.5773 244.881 57.9613 244.881 57.168V55.558C244.629 56.006 244.256 56.3793 243.761 56.678C243.267 56.9767 242.688 57.126 242.025 57.126C241.344 57.126 240.723 56.958 240.163 56.622C239.613 56.286 239.179 55.8147 238.861 55.208C238.544 54.6013 238.385 53.9107 238.385 53.136C238.385 52.352 238.544 51.666 238.861 51.078C239.179 50.4807 239.613 50.0187 240.163 49.692C240.723 49.3653 241.344 49.202 242.025 49.202ZM244.881 53.15C244.881 52.5713 244.765 52.0673 244.531 51.638C244.298 51.2087 243.981 50.882 243.579 50.658C243.187 50.4247 242.753 50.308 242.277 50.308C241.801 50.308 241.367 50.42 240.975 50.644C240.583 50.868 240.271 51.1947 240.037 51.624C239.804 52.0533 239.687 52.5573 239.687 53.136C239.687 53.724 239.804 54.2373 240.037 54.676C240.271 55.1053 240.583 55.4367 240.975 55.67C241.367 55.894 241.801 56.006 242.277 56.006C242.753 56.006 243.187 55.894 243.579 55.67C243.981 55.4367 244.298 55.1053 244.531 54.676C244.765 54.2373 244.881 53.7287 244.881 53.15Z" fill="#4CAF50"/>
<path d="M305.37 57L301.352 52.548V57H300.078V47.242H301.352V51.764L305.384 47.242H306.994L302.57 52.128L307.036 57H305.37ZM315.459 52.87C315.459 53.1127 315.445 53.3693 315.417 53.64H309.285C309.332 54.396 309.588 54.9887 310.055 55.418C310.531 55.838 311.105 56.048 311.777 56.048C312.328 56.048 312.785 55.922 313.149 55.67C313.522 55.4087 313.784 55.0633 313.933 54.634H315.305C315.1 55.3713 314.689 55.9733 314.073 56.44C313.457 56.8973 312.692 57.126 311.777 57.126C311.049 57.126 310.396 56.9627 309.817 56.636C309.248 56.3093 308.8 55.8473 308.473 55.25C308.146 54.6433 307.983 53.9433 307.983 53.15C307.983 52.3567 308.142 51.6613 308.459 51.064C308.776 50.4667 309.22 50.0093 309.789 49.692C310.368 49.3653 311.03 49.202 311.777 49.202C312.505 49.202 313.149 49.3607 313.709 49.678C314.269 49.9953 314.698 50.434 314.997 50.994C315.305 51.5447 315.459 52.17 315.459 52.87ZM314.143 52.604C314.143 52.1187 314.036 51.7033 313.821 51.358C313.606 51.0033 313.312 50.7373 312.939 50.56C312.575 50.3733 312.169 50.28 311.721 50.28C311.077 50.28 310.526 50.4853 310.069 50.896C309.621 51.3067 309.364 51.876 309.299 52.604H314.143ZM318.415 46.64V57H317.141V46.64H318.415ZM327.39 49.328V57H326.116V55.866C325.873 56.258 325.532 56.566 325.094 56.79C324.664 57.0047 324.188 57.112 323.666 57.112C323.068 57.112 322.532 56.9907 322.056 56.748C321.58 56.496 321.202 56.1227 320.922 55.628C320.651 55.1333 320.516 54.5313 320.516 53.822V49.328H321.776V53.654C321.776 54.41 321.967 54.9933 322.35 55.404C322.732 55.8053 323.255 56.006 323.918 56.006C324.599 56.006 325.136 55.796 325.528 55.376C325.92 54.956 326.116 54.3447 326.116 53.542V49.328H327.39ZM329.065 53.136C329.065 52.352 329.224 51.666 329.541 51.078C329.858 50.4807 330.292 50.0187 330.843 49.692C331.403 49.3653 332.024 49.202 332.705 49.202C333.377 49.202 333.96 49.3467 334.455 49.636C334.95 49.9253 335.318 50.2893 335.561 50.728V49.328H336.849V57H335.561V55.572C335.309 56.02 334.931 56.3933 334.427 56.692C333.932 56.9813 333.354 57.126 332.691 57.126C332.01 57.126 331.394 56.958 330.843 56.622C330.292 56.286 329.858 55.8147 329.541 55.208C329.224 54.6013 329.065 53.9107 329.065 53.136ZM335.561 53.15C335.561 52.5713 335.444 52.0673 335.211 51.638C334.978 51.2087 334.66 50.882 334.259 50.658C333.867 50.4247 333.433 50.308 332.957 50.308C332.481 50.308 332.047 50.42 331.655 50.644C331.263 50.868 330.95 51.1947 330.717 51.624C330.484 52.0533 330.367 52.5573 330.367 53.136C330.367 53.724 330.484 54.2373 330.717 54.676C330.95 55.1053 331.263 55.4367 331.655 55.67C332.047 55.894 332.481 56.006 332.957 56.006C333.433 56.006 333.867 55.894 334.259 55.67C334.66 55.4367 334.978 55.1053 335.211 54.676C335.444 54.2373 335.561 53.7287 335.561 53.15ZM340.276 50.574C340.5 50.1353 340.817 49.7947 341.228 49.552C341.648 49.3093 342.156 49.188 342.754 49.188V50.504H342.418C340.99 50.504 340.276 51.2787 340.276 52.828V57H339.002V49.328H340.276V50.574Z" fill="#FFC107"/>
<rect x="154" y="47" width="10" height="10" fill="#4CAF50"/>
<rect x="284" y="47" width="10" height="10" fill="#FFC107"/>
<g filter="url(#filter1_d_1547_458)">
<rect x="322" y="141" width="224" height="224" rx="10" fill="white"/>
</g>
<path d="M354.352 349.964H357.768V351H353.078V341.242H354.352V349.964ZM358.645 347.136C358.645 346.352 358.804 345.666 359.121 345.078C359.438 344.481 359.872 344.019 360.423 343.692C360.983 343.365 361.604 343.202 362.285 343.202C362.957 343.202 363.54 343.347 364.035 343.636C364.53 343.925 364.898 344.289 365.141 344.728V343.328H366.429V351H365.141V349.572C364.889 350.02 364.511 350.393 364.007 350.692C363.512 350.981 362.934 351.126 362.271 351.126C361.59 351.126 360.974 350.958 360.423 350.622C359.872 350.286 359.438 349.815 359.121 349.208C358.804 348.601 358.645 347.911 358.645 347.136ZM365.141 347.15C365.141 346.571 365.024 346.067 364.791 345.638C364.558 345.209 364.24 344.882 363.839 344.658C363.447 344.425 363.013 344.308 362.537 344.308C362.061 344.308 361.627 344.42 361.235 344.644C360.843 344.868 360.53 345.195 360.297 345.624C360.064 346.053 359.947 346.557 359.947 347.136C359.947 347.724 360.064 348.237 360.297 348.676C360.53 349.105 360.843 349.437 361.235 349.67C361.627 349.894 362.061 350.006 362.537 350.006C363.013 350.006 363.447 349.894 363.839 349.67C364.24 349.437 364.558 349.105 364.791 348.676C365.024 348.237 365.141 347.729 365.141 347.15ZM372.866 351L369.856 347.612V351H368.582V340.64H369.856V346.73L372.81 343.328H374.588L370.976 347.15L374.602 351H372.866ZM376.445 342.082C376.202 342.082 375.997 341.998 375.829 341.83C375.661 341.662 375.577 341.457 375.577 341.214C375.577 340.971 375.661 340.766 375.829 340.598C375.997 340.43 376.202 340.346 376.445 340.346C376.678 340.346 376.874 340.43 377.033 340.598C377.201 340.766 377.285 340.971 377.285 341.214C377.285 341.457 377.201 341.662 377.033 341.83C376.874 341.998 376.678 342.082 376.445 342.082ZM377.061 343.328V351H375.787V343.328H377.061ZM388.285 345.33V346.408H382.699V345.33H388.285ZM395.682 340.64V351H394.408V340.64H395.682ZM397.377 347.136C397.377 346.352 397.536 345.666 397.853 345.078C398.171 344.481 398.605 344.019 399.155 343.692C399.715 343.365 400.336 343.202 401.017 343.202C401.689 343.202 402.273 343.347 402.767 343.636C403.262 343.925 403.631 344.289 403.873 344.728V343.328H405.161V351H403.873V349.572C403.621 350.02 403.243 350.393 402.739 350.692C402.245 350.981 401.666 351.126 401.003 351.126C400.322 351.126 399.706 350.958 399.155 350.622C398.605 350.286 398.171 349.815 397.853 349.208C397.536 348.601 397.377 347.911 397.377 347.136ZM403.873 347.15C403.873 346.571 403.757 346.067 403.523 345.638C403.29 345.209 402.973 344.882 402.571 344.658C402.179 344.425 401.745 344.308 401.269 344.308C400.793 344.308 400.359 344.42 399.967 344.644C399.575 344.868 399.263 345.195 399.029 345.624C398.796 346.053 398.679 346.557 398.679 347.136C398.679 347.724 398.796 348.237 399.029 348.676C399.263 349.105 399.575 349.437 399.967 349.67C400.359 349.894 400.793 350.006 401.269 350.006C401.745 350.006 402.179 349.894 402.571 349.67C402.973 349.437 403.29 349.105 403.523 348.676C403.757 348.237 403.873 347.729 403.873 347.15ZM411.598 351L408.588 347.612V351H407.314V340.64H408.588V346.73L411.542 343.328H413.32L409.708 347.15L413.334 351H411.598ZM415.177 342.082C414.935 342.082 414.729 341.998 414.561 341.83C414.393 341.662 414.309 341.457 414.309 341.214C414.309 340.971 414.393 340.766 414.561 340.598C414.729 340.43 414.935 340.346 415.177 340.346C415.411 340.346 415.607 340.43 415.765 340.598C415.933 340.766 416.017 340.971 416.017 341.214C416.017 341.457 415.933 341.662 415.765 341.83C415.607 341.998 415.411 342.082 415.177 342.082ZM415.793 343.328V351H414.519V343.328H415.793Z" fill="#0090E8"/>
<path d="M345.176 293.368L341.16 303H338.36L342.424 293.672H337.448V291.336H345.176V293.368ZM354.507 293.704H349.515V295.912C349.728 295.677 350.027 295.485 350.411 295.336C350.795 295.187 351.211 295.112 351.659 295.112C352.459 295.112 353.12 295.293 353.642 295.656C354.176 296.019 354.565 296.488 354.811 297.064C355.056 297.64 355.179 298.264 355.179 298.936C355.179 300.184 354.827 301.176 354.123 301.912C353.419 302.637 352.427 303 351.147 303C350.293 303 349.552 302.856 348.923 302.568C348.293 302.269 347.808 301.859 347.467 301.336C347.125 300.813 346.939 300.211 346.907 299.528H349.579C349.643 299.859 349.797 300.136 350.043 300.36C350.288 300.573 350.624 300.68 351.051 300.68C351.552 300.68 351.925 300.52 352.171 300.2C352.416 299.88 352.539 299.453 352.539 298.92C352.539 298.397 352.411 297.997 352.155 297.72C351.899 297.443 351.525 297.304 351.035 297.304C350.672 297.304 350.373 297.395 350.139 297.576C349.904 297.747 349.749 297.976 349.674 298.264H347.035V291.304H354.507V293.704ZM356.465 294.264C356.465 293.4 356.71 292.733 357.201 292.264C357.702 291.795 358.347 291.56 359.137 291.56C359.926 291.56 360.566 291.795 361.057 292.264C361.547 292.733 361.793 293.4 361.793 294.264C361.793 295.128 361.547 295.795 361.057 296.264C360.566 296.733 359.926 296.968 359.137 296.968C358.347 296.968 357.702 296.733 357.201 296.264C356.71 295.795 356.465 295.128 356.465 294.264ZM367.329 291.736L361.169 303H358.529L364.689 291.736H367.329ZM359.121 293.16C358.609 293.16 358.353 293.528 358.353 294.264C358.353 294.989 358.609 295.352 359.121 295.352C359.366 295.352 359.558 295.261 359.697 295.08C359.835 294.899 359.905 294.627 359.905 294.264C359.905 293.528 359.643 293.16 359.121 293.16ZM364.081 300.472C364.081 299.608 364.326 298.941 364.817 298.472C365.307 298.003 365.947 297.768 366.737 297.768C367.526 297.768 368.166 298.003 368.657 298.472C369.147 298.941 369.393 299.608 369.393 300.472C369.393 301.336 369.147 302.003 368.657 302.472C368.166 302.941 367.526 303.176 366.737 303.176C365.947 303.176 365.307 302.941 364.817 302.472C364.326 302.003 364.081 301.336 364.081 300.472ZM366.721 299.368C366.475 299.368 366.283 299.459 366.145 299.64C366.017 299.821 365.953 300.099 365.953 300.472C365.953 301.197 366.209 301.56 366.721 301.56C366.966 301.56 367.158 301.469 367.297 301.288C367.435 301.107 367.505 300.835 367.505 300.472C367.505 300.109 367.435 299.837 367.297 299.656C367.158 299.464 366.966 299.368 366.721 299.368Z" fill="#4CAF50"/>
<path d="M459.602 344.098C459.602 344.91 459.322 345.587 458.762 346.128C458.211 346.66 457.367 346.926 456.228 346.926H454.352V351H453.078V341.242H456.228C457.329 341.242 458.165 341.508 458.734 342.04C459.313 342.572 459.602 343.258 459.602 344.098ZM456.228 345.876C456.937 345.876 457.46 345.722 457.796 345.414C458.132 345.106 458.3 344.667 458.3 344.098C458.3 342.894 457.609 342.292 456.228 342.292H454.352V345.876H456.228ZM468.185 346.87C468.185 347.113 468.171 347.369 468.143 347.64H462.011C462.058 348.396 462.315 348.989 462.781 349.418C463.257 349.838 463.831 350.048 464.503 350.048C465.054 350.048 465.511 349.922 465.875 349.67C466.249 349.409 466.51 349.063 466.659 348.634H468.031C467.826 349.371 467.415 349.973 466.799 350.44C466.183 350.897 465.418 351.126 464.503 351.126C463.775 351.126 463.122 350.963 462.543 350.636C461.974 350.309 461.526 349.847 461.199 349.25C460.873 348.643 460.709 347.943 460.709 347.15C460.709 346.357 460.868 345.661 461.185 345.064C461.503 344.467 461.946 344.009 462.515 343.692C463.094 343.365 463.757 343.202 464.503 343.202C465.231 343.202 465.875 343.361 466.435 343.678C466.995 343.995 467.425 344.434 467.723 344.994C468.031 345.545 468.185 346.17 468.185 346.87ZM466.869 346.604C466.869 346.119 466.762 345.703 466.547 345.358C466.333 345.003 466.039 344.737 465.665 344.56C465.301 344.373 464.895 344.28 464.447 344.28C463.803 344.28 463.253 344.485 462.795 344.896C462.347 345.307 462.091 345.876 462.025 346.604H466.869ZM471.141 344.574C471.365 344.135 471.682 343.795 472.093 343.552C472.513 343.309 473.022 343.188 473.619 343.188V344.504H473.283C471.855 344.504 471.141 345.279 471.141 346.828V351H469.867V343.328H471.141V344.574ZM482.09 346.87C482.09 347.113 482.076 347.369 482.048 347.64H475.916C475.962 348.396 476.219 348.989 476.686 349.418C477.162 349.838 477.736 350.048 478.408 350.048C478.958 350.048 479.416 349.922 479.78 349.67C480.153 349.409 480.414 349.063 480.564 348.634H481.936C481.73 349.371 481.32 349.973 480.704 350.44C480.088 350.897 479.322 351.126 478.408 351.126C477.68 351.126 477.026 350.963 476.448 350.636C475.878 350.309 475.43 349.847 475.104 349.25C474.777 348.643 474.614 347.943 474.614 347.15C474.614 346.357 474.772 345.661 475.09 345.064C475.407 344.467 475.85 344.009 476.42 343.692C476.998 343.365 477.661 343.202 478.408 343.202C479.136 343.202 479.78 343.361 480.34 343.678C480.9 343.995 481.329 344.434 481.628 344.994C481.936 345.545 482.09 346.17 482.09 346.87ZM480.774 346.604C480.774 346.119 480.666 345.703 480.452 345.358C480.237 345.003 479.943 344.737 479.57 344.56C479.206 344.373 478.8 344.28 478.352 344.28C477.708 344.28 477.157 344.485 476.7 344.896C476.252 345.307 475.995 345.876 475.93 346.604H480.774ZM492.997 343.188C493.595 343.188 494.127 343.314 494.593 343.566C495.06 343.809 495.429 344.177 495.699 344.672C495.97 345.167 496.105 345.769 496.105 346.478V351H494.845V346.66C494.845 345.895 494.654 345.311 494.271 344.91C493.898 344.499 493.389 344.294 492.745 344.294C492.083 344.294 491.555 344.509 491.163 344.938C490.771 345.358 490.575 345.969 490.575 346.772V351H489.315V346.66C489.315 345.895 489.124 345.311 488.741 344.91C488.368 344.499 487.859 344.294 487.215 344.294C486.553 344.294 486.025 344.509 485.633 344.938C485.241 345.358 485.045 345.969 485.045 346.772V351H483.771V343.328H485.045V344.434C485.297 344.033 485.633 343.725 486.053 343.51C486.483 343.295 486.954 343.188 487.467 343.188C488.111 343.188 488.681 343.333 489.175 343.622C489.67 343.911 490.039 344.336 490.281 344.896C490.496 344.355 490.851 343.935 491.345 343.636C491.84 343.337 492.391 343.188 492.997 343.188ZM499.469 344.742C499.721 344.303 500.095 343.939 500.589 343.65C501.093 343.351 501.677 343.202 502.339 343.202C503.021 343.202 503.637 343.365 504.187 343.692C504.747 344.019 505.186 344.481 505.503 345.078C505.821 345.666 505.979 346.352 505.979 347.136C505.979 347.911 505.821 348.601 505.503 349.208C505.186 349.815 504.747 350.286 504.187 350.622C503.637 350.958 503.021 351.126 502.339 351.126C501.686 351.126 501.107 350.981 500.603 350.692C500.109 350.393 499.731 350.025 499.469 349.586V354.64H498.195V343.328H499.469V344.742ZM504.677 347.136C504.677 346.557 504.561 346.053 504.327 345.624C504.094 345.195 503.777 344.868 503.375 344.644C502.983 344.42 502.549 344.308 502.073 344.308C501.607 344.308 501.173 344.425 500.771 344.658C500.379 344.882 500.062 345.213 499.819 345.652C499.586 346.081 499.469 346.581 499.469 347.15C499.469 347.729 499.586 348.237 499.819 348.676C500.062 349.105 500.379 349.437 500.771 349.67C501.173 349.894 501.607 350.006 502.073 350.006C502.549 350.006 502.983 349.894 503.375 349.67C503.777 349.437 504.094 349.105 504.327 348.676C504.561 348.237 504.677 347.724 504.677 347.136ZM514.46 343.328V351H513.186V349.866C512.943 350.258 512.603 350.566 512.164 350.79C511.735 351.005 511.259 351.112 510.736 351.112C510.139 351.112 509.602 350.991 509.126 350.748C508.65 350.496 508.272 350.123 507.992 349.628C507.721 349.133 507.586 348.531 507.586 347.822V343.328H508.846V347.654C508.846 348.41 509.037 348.993 509.42 349.404C509.803 349.805 510.325 350.006 510.988 350.006C511.669 350.006 512.206 349.796 512.598 349.376C512.99 348.956 513.186 348.345 513.186 347.542V343.328H514.46ZM516.135 347.136C516.135 346.352 516.294 345.666 516.611 345.078C516.929 344.481 517.363 344.019 517.913 343.692C518.473 343.365 519.094 343.202 519.775 343.202C520.447 343.202 521.031 343.347 521.525 343.636C522.02 343.925 522.389 344.289 522.631 344.728V343.328H523.919V351H522.631V349.572C522.379 350.02 522.001 350.393 521.497 350.692C521.003 350.981 520.424 351.126 519.761 351.126C519.08 351.126 518.464 350.958 517.913 350.622C517.363 350.286 516.929 349.815 516.611 349.208C516.294 348.601 516.135 347.911 516.135 347.136ZM522.631 347.15C522.631 346.571 522.515 346.067 522.281 345.638C522.048 345.209 521.731 344.882 521.329 344.658C520.937 344.425 520.503 344.308 520.027 344.308C519.551 344.308 519.117 344.42 518.725 344.644C518.333 344.868 518.021 345.195 517.787 345.624C517.554 346.053 517.437 346.557 517.437 347.136C517.437 347.724 517.554 348.237 517.787 348.676C518.021 349.105 518.333 349.437 518.725 349.67C519.117 349.894 519.551 350.006 520.027 350.006C520.503 350.006 520.937 349.894 521.329 349.67C521.731 349.437 522.048 349.105 522.281 348.676C522.515 348.237 522.631 347.729 522.631 347.15ZM529.81 343.188C530.743 343.188 531.499 343.473 532.078 344.042C532.657 344.602 532.946 345.414 532.946 346.478V351H531.686V346.66C531.686 345.895 531.495 345.311 531.112 344.91C530.729 344.499 530.207 344.294 529.544 344.294C528.872 344.294 528.335 344.504 527.934 344.924C527.542 345.344 527.346 345.955 527.346 346.758V351H526.072V343.328H527.346V344.42C527.598 344.028 527.939 343.725 528.368 343.51C528.807 343.295 529.287 343.188 529.81 343.188Z" fill="#0090E8"/>
<rect x="337" y="341" width="10" height="10" fill="#4CAF50"/>
<rect x="437" y="341" width="10" height="10" fill="#FFC107"/>
<circle cx="435.5" cy="238.5" r="66.5" stroke="#4CAF50" stroke-width="20"/>
<rect x="430" y="149" width="105" height="92" fill="white"/>
<mask id="mask0_1547_458" style="mask-type:alpha" maskUnits="userSpaceOnUse" x="434" y="151" width="102" height="86">
<rect x="434" y="151" width="102" height="86" fill="#D9D9D9"/>
</mask>
<g mask="url(#mask0_1547_458)">
<circle cx="435.5" cy="238.5" r="66.5" stroke="#FFC107" stroke-width="20"/>
</g>
<path d="M500.624 177.808C500.987 177.52 501.152 177.387 501.12 177.408C502.165 176.544 502.987 175.835 503.584 175.28C504.192 174.725 504.704 174.144 505.12 173.536C505.536 172.928 505.744 172.336 505.744 171.76C505.744 171.323 505.643 170.981 505.44 170.736C505.237 170.491 504.933 170.368 504.528 170.368C504.123 170.368 503.803 170.523 503.568 170.832C503.344 171.131 503.232 171.557 503.232 172.112H500.592C500.613 171.205 500.805 170.448 501.168 169.84C501.541 169.232 502.027 168.784 502.624 168.496C503.232 168.208 503.904 168.064 504.64 168.064C505.909 168.064 506.864 168.389 507.504 169.04C508.155 169.691 508.48 170.539 508.48 171.584C508.48 172.725 508.091 173.787 507.312 174.768C506.533 175.739 505.541 176.688 504.336 177.616H508.656V179.84H500.624V177.808ZM518.085 170.704H513.093V172.912C513.306 172.677 513.605 172.485 513.989 172.336C514.373 172.187 514.789 172.112 515.237 172.112C516.037 172.112 516.698 172.293 517.221 172.656C517.754 173.019 518.143 173.488 518.389 174.064C518.634 174.64 518.757 175.264 518.757 175.936C518.757 177.184 518.405 178.176 517.701 178.912C516.997 179.637 516.005 180 514.725 180C513.871 180 513.13 179.856 512.501 179.568C511.871 179.269 511.386 178.859 511.045 178.336C510.703 177.813 510.517 177.211 510.485 176.528H513.157C513.221 176.859 513.375 177.136 513.621 177.36C513.866 177.573 514.202 177.68 514.629 177.68C515.13 177.68 515.503 177.52 515.749 177.2C515.994 176.88 516.117 176.453 516.117 175.92C516.117 175.397 515.989 174.997 515.733 174.72C515.477 174.443 515.103 174.304 514.613 174.304C514.25 174.304 513.951 174.395 513.717 174.576C513.482 174.747 513.327 174.976 513.253 175.264H510.613V168.304H518.085V170.704ZM520.043 171.264C520.043 170.4 520.288 169.733 520.779 169.264C521.28 168.795 521.926 168.56 522.715 168.56C523.504 168.56 524.144 168.795 524.635 169.264C525.126 169.733 525.371 170.4 525.371 171.264C525.371 172.128 525.126 172.795 524.635 173.264C524.144 173.733 523.504 173.968 522.715 173.968C521.926 173.968 521.28 173.733 520.779 173.264C520.288 172.795 520.043 172.128 520.043 171.264ZM530.907 168.736L524.747 180H522.107L528.267 168.736H530.907ZM522.699 170.16C522.187 170.16 521.931 170.528 521.931 171.264C521.931 171.989 522.187 172.352 522.699 172.352C522.944 172.352 523.136 172.261 523.275 172.08C523.414 171.899 523.483 171.627 523.483 171.264C523.483 170.528 523.222 170.16 522.699 170.16ZM527.659 177.472C527.659 176.608 527.904 175.941 528.395 175.472C528.886 175.003 529.526 174.768 530.315 174.768C531.104 174.768 531.744 175.003 532.235 175.472C532.726 175.941 532.971 176.608 532.971 177.472C532.971 178.336 532.726 179.003 532.235 179.472C531.744 179.941 531.104 180.176 530.315 180.176C529.526 180.176 528.886 179.941 528.395 179.472C527.904 179.003 527.659 178.336 527.659 177.472ZM530.299 176.368C530.054 176.368 529.862 176.459 529.723 176.64C529.595 176.821 529.531 177.099 529.531 177.472C529.531 178.197 529.787 178.56 530.299 178.56C530.544 178.56 530.736 178.469 530.875 178.288C531.014 178.107 531.083 177.835 531.083 177.472C531.083 177.109 531.014 176.837 530.875 176.656C530.736 176.464 530.544 176.368 530.299 176.368Z" fill="#FFC107"/>
<defs>
<filter id="filter0_d_1547_458" x="0" y="0" width="495" height="296" filterUnits="userSpaceOnUse" color-interpolation-filters="sRGB">
<feFlood flood-opacity="0" result="BackgroundImageFix"/>
<feColorMatrix in="SourceAlpha" type="matrix" values="0 0 0 0 0 0 0 0 0 0 0 0 0 0 0 0 0 0 127 0" result="hardAlpha"/>
<feOffset dx="4" dy="4"/>
<feGaussianBlur stdDeviation="7.5"/>
<feComposite in2="hardAlpha" operator="out"/>
<feColorMatrix type="matrix" values="0 0 0 0 0 0 0 0 0 0 0 0 0 0 0 0 0 0 0.05 0"/>
<feBlend mode="normal" in2="BackgroundImageFix" result="effect1_dropShadow_1547_458"/>
<feBlend mode="normal" in="SourceGraphic" in2="effect1_dropShadow_1547_458" result="shape"/>
</filter>
<filter id="filter1_d_1547_458" x="311" y="130" width="254" height="254" filterUnits="userSpaceOnUse" color-interpolation-filters="sRGB">
<feFlood flood-opacity="0" result="BackgroundImageFix"/>
<feColorMatrix in="SourceAlpha" type="matrix" values="0 0 0 0 0 0 0 0 0 0 0 0 0 0 0 0 0 0 127 0" result="hardAlpha"/>
<feOffset dx="4" dy="4"/>
<feGaussianBlur stdDeviation="7.5"/>
<feComposite in2="hardAlpha" operator="out"/>
<feColorMatrix type="matrix" values="0 0 0 0 0 0 0 0 0 0 0 0 0 0 0 0 0 0 0.05 0"/>
<feBlend mode="normal" in2="BackgroundImageFix" result="effect1_dropShadow_1547_458"/>
<feBlend mode="normal" in="SourceGraphic" in2="effect1_dropShadow_1547_458" result="shape"/>
</filter>
</defs>
</svg>
