<svg width="19" height="19" viewBox="0 0 19 19" fill="none" xmlns="http://www.w3.org/2000/svg">
<path d="M17 0H5C4.46957 0 3.96086 0.210714 3.58579 0.585786C3.21071 0.960859 3 1.46957 3 2V14C3 14.5304 3.21071 15.0391 3.58579 15.4142C3.96086 15.7893 4.46957 16 5 16H17C17.5304 16 18.0391 15.7893 18.4142 15.4142C18.7893 15.0391 19 14.5304 19 14V2C19 1.46957 18.7893 0.960859 18.4142 0.585786C18.0391 0.210714 17.5304 0 17 0ZM11 2.5C11.663 2.5 12.2989 2.76339 12.7678 3.23223C13.2366 3.70107 13.5 4.33696 13.5 5C13.5 5.66304 13.2366 6.29893 12.7678 6.76777C12.2989 7.23661 11.663 7.5 11 7.5C10.337 7.5 9.70107 7.23661 9.23223 6.76777C8.76339 6.29893 8.5 5.66304 8.5 5C8.5 4.33696 8.76339 3.70107 9.23223 3.23223C9.70107 2.76339 10.337 2.5 11 2.5ZM16 13H6V12.75C6 10.901 8.254 9 11 9C13.746 9 16 10.901 16 12.75V13Z" fill="#AAB2BB"/>
<path d="M2 5H0V17C0 18.103 0.897 19 2 19H14V17H2V5Z" fill="#AAB2BB"/>
</svg>
